<svg width="89" height="106" viewBox="0 0 89 106" fill="none" xmlns="http://www.w3.org/2000/svg">
<path d="M39.36 60.16C39.808 59.52 40.448 58.4 41.28 56.8C43.328 53.152 44.544 51.328 44.928 51.328C45.376 51.328 45.6 51.584 45.6 52.096C45.6 55.232 43.968 59.2 40.704 64C34.816 72.64 26.976 76.96 17.184 76.96C14.432 76.96 11.904 76.32 9.6 75.04C7.296 73.76 5.472 72.128 4.128 70.144C1.376 66.112 0 61.888 0 57.472C0 46.336 2.88 37.376 8.64 30.592C14.464 23.744 21.344 20.32 29.28 20.32C32.288 20.32 34.752 21.216 36.672 23.008C38.592 24.736 39.552 26.944 39.552 29.632C39.552 32.32 38.88 34.816 37.536 37.12C36.192 39.424 34.56 40.576 32.64 40.576C30.784 40.576 29.856 40.064 29.856 39.04C29.856 37.888 30.464 36.576 31.68 35.104C32.96 33.632 33.6 32.16 33.6 30.688C33.6 26.144 31.168 23.872 26.304 23.872C21.504 23.872 17.152 27.104 13.248 33.568C9.344 40.032 7.392 46.688 7.392 53.536C7.392 58.272 8.736 62.496 11.424 66.208C14.112 69.856 17.888 71.68 22.752 71.68C28.512 71.68 34.048 67.84 39.36 60.16ZM62.0265 77.92C56.7145 77.92 53.0985 75.616 51.1785 71.008C49.8345 67.872 48.7785 63.904 48.0105 59.104C46.0905 61.28 44.8105 62.784 44.1705 63.616C43.5305 64.384 42.9545 64.768 42.4425 64.768C41.6745 64.768 41.2905 64.448 41.2905 63.808C41.2905 63.424 41.4825 63.04 41.8665 62.656C44.1065 60.416 46.0265 58.368 47.6265 56.512C47.1145 52.864 46.8585 48.992 46.8585 44.896C46.8585 40.736 47.2425 36.832 48.0105 33.184C48.7785 29.536 50.0585 26.496 51.8505 24.064C53.7065 21.568 55.9785 20.32 58.6665 20.32C61.9305 20.32 63.5625 23.104 63.5625 28.672C63.5625 35.84 60.6825 43.232 54.9225 50.848C55.3705 56.608 56.4905 62.016 58.2825 67.072C58.9865 69.12 59.7545 70.656 60.5865 71.68C61.4825 72.64 62.6985 73.12 64.2345 73.12C65.8345 73.12 67.5945 72.064 69.5145 69.952C71.4985 67.776 73.3225 64.992 74.9865 61.6C76.6505 58.144 78.0585 54.016 79.2105 49.216C80.3625 44.352 80.9385 39.296 80.9385 34.048C80.9385 28.8 80.5545 25.12 79.7865 23.008C79.0185 20.832 77.7065 18.88 75.8505 17.152C73.4185 15.104 72.2025 13.088 72.2025 11.104C72.2025 10.144 72.5865 9.312 73.3545 8.608C74.1865 7.84 75.0185 7.456 75.8505 7.456C77.9625 7.456 79.7225 8.128 81.1305 9.472C82.6025 10.816 83.6585 12.64 84.2985 14.944C85.4505 18.976 86.0265 23.392 86.0265 28.192C86.0265 37.216 84.7785 45.632 82.2825 53.44C79.8505 61.248 76.7785 67.296 73.0665 71.584C69.4185 75.808 65.7385 77.92 62.0265 77.92ZM59.9145 29.92C59.9145 26.528 59.5305 24.832 58.7625 24.832C58.2505 24.832 57.6745 25.6 57.0345 27.136C56.3945 28.672 55.8185 30.816 55.3065 33.568C54.7945 36.32 54.5385 39.008 54.5385 41.632C54.5385 44.256 54.5705 46.112 54.6345 47.2C58.1545 41.312 59.9145 35.552 59.9145 29.92Z" fill="#E32929"/>
</svg>
